<svg width="3001" height="2926" viewBox="0 0 3001 2926" fill="none" xmlns="http://www.w3.org/2000/svg">
<path fill-rule="evenodd" clip-rule="evenodd" d="M671.609 1143.58L480.594 1371.22L480.594 1142.78L609.399 1143.4C631.689 1143.32 652.391 1143.34 671.609 1143.58ZM886.79 887.134L784.406 1009.15L784.406 988.123L797.661 988.123C800.404 988.123 803.146 986.574 805.888 983.476C808.936 980.068 810.459 977.125 810.459 974.646L810.459 792.483C810.459 790.005 808.936 787.216 805.888 784.118C803.146 781.02 800.404 779.472 797.661 779.472L784.406 779.472L784.406 719.99L912.843 719.99L959.011 801.065L896.567 875.482L888.161 860.794L886.79 860.794L886.79 887.134ZM1027.04 719.99L981.861 719.99L981.861 773.834L1027.04 719.99ZM644.682 1050.39C591.357 1050.39 550.678 1036.45 522.644 1008.57C494.611 980.378 480.594 939.484 480.594 885.888C480.594 831.053 494.306 788.92 521.73 759.489C549.459 729.748 588.158 714.878 637.826 714.878C657.328 714.878 675.154 716.582 691.303 719.99L763.978 719.99L763.978 836.165L695.874 836.165L685.361 789.23C678.048 787.062 669.669 785.977 660.223 785.977C616.953 785.977 595.319 817.732 595.319 881.241C595.319 914.7 599.889 939.484 609.031 955.594C618.477 971.393 633.56 979.293 654.281 979.293C676.22 979.293 695.569 968.45 712.329 946.764L765.349 946.764L765.349 1016.93C732.44 1039.24 692.217 1050.39 644.682 1050.39Z" fill="#C26179"/>
<path fill-rule="evenodd" clip-rule="evenodd" d="M981.861 773.834L1027.04 719.99L1110.75 719.99L1110.75 779.472L1098.87 779.472C1096.43 779.472 1093.69 781.021 1090.64 784.119C1087.9 787.217 1086.53 790.005 1086.53 792.483L1086.53 1045.28L993.744 1045.28L896.567 875.483L959.011 801.066L1008.37 887.747L1009.74 887.747L1009.74 779.472L981.861 779.472L981.861 773.834ZM480.594 1371.22L671.609 1143.58C866.664 1145.97 908.88 1170.17 908.88 1323.96C908.88 1500.44 775.841 1500.44 609.399 1500.44L609.399 1782.3L480.594 1782.3L480.594 1371.22ZM1214.49 1143.73C1175.77 1140.51 1127.87 1139.97 1068.8 1140.2L940 1139.58L940 1470.85L1068.8 1317.35L1068.8 1253.01C1085.6 1253.01 1100.79 1252.83 1114.52 1252.66L1114.52 1252.66L1114.53 1252.66L1114.54 1252.66L1114.55 1252.66C1117.49 1252.63 1120.36 1252.59 1123.17 1252.56L1214.49 1143.73ZM1379.76 946.764L1292.82 1050.38C1240.66 1049.97 1200.77 1036.04 1173.16 1008.57C1145.13 980.378 1131.11 939.484 1131.11 885.888C1131.11 831.053 1144.82 788.92 1172.24 759.489C1199.97 729.748 1238.67 714.878 1288.34 714.878C1307.84 714.878 1325.67 716.582 1341.82 719.99L1414.49 719.99L1414.49 836.165L1346.39 836.165L1335.88 789.23C1328.56 787.062 1320.18 785.977 1310.74 785.977C1267.47 785.977 1245.83 817.732 1245.83 881.241C1245.83 914.7 1250.4 939.484 1259.55 955.594C1268.99 971.394 1284.07 979.293 1304.8 979.293C1326.73 979.293 1346.08 968.45 1362.84 946.764L1379.76 946.764ZM784.406 1009.15L886.79 887.135L886.79 988.123L916.043 988.123L916.042 1045.28L784.406 1045.28L784.406 1009.15ZM609.399 1405.09L609.399 1256.21C626.193 1256.21 641.386 1256.03 655.118 1255.87L655.128 1255.87L655.14 1255.87C751.495 1254.71 775.841 1254.42 775.841 1323.96C775.841 1403.42 756.604 1405.09 609.399 1405.09Z" fill="#EE7177"/>
<path fill-rule="evenodd" clip-rule="evenodd" d="M1292.82 1050.38L1379.76 946.764L1415.86 946.764L1415.86 1016.93C1382.95 1039.24 1342.73 1050.39 1295.2 1050.39C1294.4 1050.39 1293.61 1050.39 1292.82 1050.38ZM1241.11 1759.14C1241.11 1759.05 1241.11 1758.95 1241.11 1758.85L1241.11 1758.85L1241.11 1758.84L1241.11 1758.84C1241.3 1728.12 1241.62 1673.99 1241.01 1641.1C1236.72 1560.13 1180.36 1556.19 1075.83 1548.88L1072.81 1548.67C1071.48 1548.58 1070.15 1548.49 1068.8 1548.39L1068.8 1779.1L940 1779.1L940 1470.86L1068.8 1317.35L1068.8 1401.89C1216.01 1401.89 1235.25 1400.21 1235.25 1320.76C1235.25 1253.34 1212.36 1251.55 1123.17 1252.56L1214.49 1143.73C1338.68 1154.06 1368.29 1191.96 1368.29 1320.76C1368.29 1428.22 1318.95 1470.25 1242.78 1486.68C1247.32 1488.48 1253.03 1490.32 1259.45 1492.39L1259.46 1492.39C1291.11 1502.6 1339.99 1518.36 1350.14 1561.44C1353.75 1576.73 1356.05 1597.47 1357.5 1620.43L1241.11 1759.14ZM1528.21 1416.99L1399.41 1570.49L1399.41 1139.58L1528.21 1139.58L1528.21 1416.99ZM1758.56 1142.46L1559.33 1379.9L1559.33 1142.46L1758.56 1142.46Z" fill="#FFC78C"/>
<path fill-rule="evenodd" clip-rule="evenodd" d="M1559.33 1379.9L1758.56 1142.46L1760.07 1142.46C1863.47 1142.46 2038.87 1164.86 2049.01 1437.26C2049.09 1439.26 2049.15 1441.24 2049.21 1443.22L1768.52 1777.72C1765.26 1777.76 1762.43 1777.76 1760.07 1777.76L1559.33 1777.76L1559.33 1379.9ZM1399.41 1570.49L1528.21 1416.99L1528.21 1774.88L1399.41 1774.88L1399.41 1570.49ZM1241.11 1759.14L1357.5 1620.43C1360.28 1664.38 1359.94 1716.48 1359.7 1754.15L1359.7 1754.16L1359.7 1754.21L1359.7 1754.3L1359.7 1754.31C1359.64 1763.56 1359.59 1771.94 1359.59 1779.1L1241.01 1779.1C1241.01 1775.38 1241.05 1768.33 1241.11 1759.14ZM1480.85 2120.56L1424.24 2188.03C1392.03 2182.21 1366.07 2169.5 1346.37 2149.9C1318.33 2121.7 1304.31 2080.81 1304.31 2027.21C1304.31 1972.38 1318.03 1930.24 1345.45 1900.81C1373.18 1871.07 1411.88 1856.2 1461.55 1856.2C1481.05 1856.2 1498.88 1857.91 1515.03 1861.31L1587.7 1861.31L1587.7 1977.49L1519.6 1977.49L1509.08 1930.55C1501.77 1928.39 1493.39 1927.3 1483.94 1927.3C1440.68 1927.3 1419.04 1959.06 1419.04 2022.57C1419.04 2056.03 1423.61 2080.81 1432.75 2096.92C1442.2 2112.72 1457.28 2120.62 1478 2120.62C1478.96 2120.62 1479.91 2120.6 1480.85 2120.56ZM1698.39 1861.31L1631.59 1940.92L1631.59 1933.81C1631.59 1931.33 1630.07 1928.54 1627.02 1925.44C1624.28 1922.34 1621.53 1920.8 1618.79 1920.8L1605.54 1920.8L1605.54 1861.31L1698.39 1861.31ZM2305.38 1137.92L2080.6 1405.81L2080.6 1137.92L2305.38 1137.92ZM1909.47 1437.26C1909.47 1609.7 1900.84 1627.82 1760.07 1651.47L1688.14 1651.47L1688.14 1253.2L1760.07 1253.2C1819.09 1253.2 1909.47 1280.28 1909.47 1437.26Z" fill="#7FCC8A"/>
<path fill-rule="evenodd" clip-rule="evenodd" d="M2080.6 1405.81L2305.38 1137.92L2514.89 1137.92L2514.89 1248.66L2215.83 1248.66L2215.83 1383.2L2357.19 1383.2L2357.19 1496.67L2215.83 1496.67L2215.83 1646.93L2421.29 1646.93L2315.31 1773.22L2080.6 1773.22L2080.6 1405.81ZM1768.53 1777.72L2049.21 1443.22C2058.28 1761.49 1832.31 1776.97 1768.53 1777.72ZM1631.59 1940.92L1698.39 1861.31L1774.65 1861.31L1774.65 1920.8L1738.54 1920.8L1738.54 2124.34L1801.62 2124.34L1810.3 2066.71L1875.67 2066.71L1875.67 2186.61L1605.54 2186.61L1605.54 2129.45L1618.79 2129.45C1621.53 2129.45 1624.28 2127.9 1627.02 2124.8C1630.07 2121.39 1631.59 2118.45 1631.59 2115.97L1631.59 1940.92ZM1424.24 2188.03L1480.85 2120.56C1501.62 2119.65 1520.02 2108.83 1536.05 2088.09L1589.07 2088.09L1589.07 2158.26C1556.16 2180.57 1515.94 2191.72 1468.4 2191.72C1452.57 2191.72 1437.84 2190.49 1424.24 2188.03ZM2191.48 1920.8L2190.43 1920.8C2187.99 1920.8 2185.25 1922.34 2182.2 1925.44C2179.46 1928.54 2178.09 1931.33 2178.09 1933.81L2178.09 1936.76L2097.65 2032.63L2097.65 1920.8L2066.11 1920.8L2066.11 1861.31L2201.86 1861.31L2201.86 1908.43L2191.48 1920.8ZM2241.4 1861.31L2219.16 1887.81L2219.16 1861.31L2241.4 1861.31ZM2026.88 2116.97L1972.81 2181.4C1925.81 2164.33 1902.47 2126.23 1902.47 2068.11L1902.47 1933.81C1902.47 1931.33 1900.95 1928.54 1897.9 1925.44C1895.16 1922.34 1892.42 1920.8 1889.68 1920.8L1878.25 1920.8L1878.25 1861.31L2040.97 1861.31L2040.97 1920.8L2009.43 1920.8L2009.43 2073.68C2009.43 2090.72 2012.93 2103.27 2019.94 2111.32C2021.93 2113.52 2024.24 2115.4 2026.88 2116.97Z" fill="#7D72C7"/>
<path fill-rule="evenodd" clip-rule="evenodd" d="M2315.31 1773.22L2421.29 1646.93L2428.35 1646.93L2514.89 1646.48L2514.89 1773.22L2315.31 1773.22ZM2219.16 1887.81L2241.4 1861.31L2374.11 1861.31C2461.56 1861.31 2505.29 1889.35 2505.29 1945.42C2505.29 1964.94 2499.96 1980.12 2489.29 1990.97C2478.63 2001.81 2462.78 2009.86 2441.76 2015.13L2441.76 2016.99C2490.51 2024.73 2514.89 2050.14 2514.89 2093.2C2514.89 2123.87 2502.55 2147.11 2477.87 2162.91C2453.49 2178.71 2419.36 2186.61 2375.48 2186.61L2219.16 2186.61L2219.16 2128.98L2232.42 2128.98C2235.16 2128.98 2237.9 2127.43 2240.64 2124.34C2243.69 2120.93 2245.22 2117.99 2245.22 2115.51L2245.22 1933.34C2245.22 1930.86 2243.69 1928.08 2240.64 1924.98C2237.9 1921.88 2235.16 1920.33 2232.42 1920.33L2219.16 1920.33L2219.16 1887.81ZM2026.88 2116.97C2033.57 2120.95 2042.38 2122.94 2053.31 2122.94C2068.55 2122.94 2079.67 2119.07 2086.68 2111.32C2093.99 2103.27 2097.65 2090.72 2097.65 2073.68L2097.65 2032.63L2178.09 1936.76L2178.09 2068.11C2178.09 2149.59 2132.08 2191.72 2040.97 2191.72C2014.41 2191.72 1991.7 2188.26 1972.81 2181.4L2026.88 2116.97ZM2191.48 1920.8L2201.86 1908.43L2201.86 1920.8L2191.48 1920.8ZM2350.34 2126.66L2368.63 2126.66C2382.64 2126.66 2392.55 2123.41 2398.33 2116.9C2404.43 2110.4 2407.48 2100.33 2407.48 2086.7C2407.48 2073.37 2404.43 2063.77 2398.33 2057.88C2392.55 2051.69 2382.64 2048.59 2368.63 2048.59L2350.34 2048.59L2350.34 2126.66ZM2350.34 1922.65L2350.34 1991.9L2366.8 1991.9C2390.56 1991.9 2402.45 1980.28 2402.45 1957.04C2402.45 1945.27 2399.71 1936.6 2394.22 1931.02C2388.74 1925.44 2379.75 1922.65 2367.25 1922.65L2350.34 1922.65Z" fill="#AB76CD"/>
<path d="M522.644 1008.57C550.678 1036.45 591.357 1050.39 644.682 1050.39C692.217 1050.39 732.44 1039.24 765.349 1016.93V946.764H712.329C695.569 968.45 676.22 979.293 654.281 979.293C633.56 979.293 618.477 971.393 609.031 955.594C599.889 939.484 595.319 914.7 595.319 881.241C595.319 817.732 616.953 785.977 660.222 785.977C669.669 785.977 678.048 787.062 685.361 789.23L695.874 836.165H763.977V719.99H691.303C675.153 716.582 657.328 714.878 637.826 714.878C588.158 714.878 549.459 729.748 521.73 759.489C494.306 788.92 480.594 831.053 480.594 885.888C480.594 939.484 494.611 980.378 522.644 1008.57Z" fill="#EA1525"/>
<path d="M784.406 988.123V1045.28H916.042V988.123H886.79V860.794H888.161L993.744 1045.28H1086.53V792.483C1086.53 790.005 1087.9 787.217 1090.64 784.119C1093.69 781.021 1096.43 779.472 1098.87 779.472H1110.75V719.99H981.86V779.472H1009.74V887.747H1008.37L912.843 719.99H784.406V779.472H797.661C800.404 779.472 803.146 781.021 805.888 784.119C808.936 787.217 810.459 790.005 810.459 792.483V974.646C810.459 977.125 808.936 980.068 805.888 983.476C803.146 986.574 800.404 988.123 797.661 988.123H784.406Z" fill="#EA1525"/>
<path d="M1295.2 1050.39C1241.87 1050.39 1201.19 1036.45 1173.16 1008.57C1145.13 980.378 1131.11 939.484 1131.11 885.888C1131.11 831.053 1144.82 788.92 1172.24 759.489C1199.97 729.748 1238.67 714.878 1288.34 714.878C1307.84 714.878 1325.67 716.582 1341.82 719.99H1414.49V836.165H1346.39L1335.88 789.23C1328.56 787.062 1320.18 785.977 1310.74 785.977C1267.47 785.977 1245.83 817.732 1245.83 881.241C1245.83 914.7 1250.4 939.484 1259.55 955.594C1268.99 971.393 1284.07 979.293 1304.79 979.293C1326.73 979.293 1346.08 968.45 1362.84 946.764H1415.86V1016.93C1382.95 1039.24 1342.73 1050.39 1295.2 1050.39Z" fill="#EA1525"/>
<path d="M1346.37 2149.9C1374.4 2177.78 1415.08 2191.72 1468.4 2191.72C1515.94 2191.72 1556.16 2180.57 1589.07 2158.26V2088.09H1536.05C1519.29 2109.78 1499.94 2120.62 1478 2120.62C1457.28 2120.62 1442.2 2112.72 1432.75 2096.92C1423.61 2080.81 1419.04 2056.03 1419.04 2022.57C1419.04 1959.06 1440.68 1927.3 1483.94 1927.3C1493.39 1927.3 1501.77 1928.39 1509.08 1930.55L1519.6 1977.49H1587.7V1861.31H1515.03C1498.88 1857.91 1481.05 1856.2 1461.55 1856.2C1411.88 1856.2 1373.18 1871.07 1345.45 1900.81C1318.03 1930.24 1304.31 1972.38 1304.31 2027.21C1304.31 2080.81 1318.33 2121.7 1346.37 2149.9Z" fill="#EA1525"/>
<path d="M1605.54 2186.61V2129.45H1618.79C1621.53 2129.45 1624.28 2127.9 1627.02 2124.8C1630.07 2121.39 1631.59 2118.45 1631.59 2115.97V1933.81C1631.59 1931.33 1630.07 1928.54 1627.02 1925.44C1624.28 1922.34 1621.53 1920.8 1618.79 1920.8H1605.54V1861.31H1774.65V1920.8H1738.54V2124.34H1801.62L1810.3 2066.71H1875.67V2186.61H1605.54Z" fill="#EA1525"/>
<path d="M1902.47 2068.11C1902.47 2149.59 1948.33 2191.72 2040.97 2191.72C2132.08 2191.72 2178.09 2149.59 2178.09 2068.11V1933.81C2178.09 1931.33 2179.46 1928.54 2182.2 1925.44C2185.25 1922.34 2187.99 1920.8 2190.43 1920.8H2201.86V1861.31H2066.11V1920.8H2097.65V2073.68C2097.65 2090.72 2093.99 2103.27 2086.68 2111.33C2079.67 2119.07 2068.54 2122.94 2053.31 2122.94C2038.07 2122.94 2026.95 2119.07 2019.94 2111.33C2012.93 2103.27 2009.43 2090.72 2009.43 2073.68V1920.8H2040.97V1861.31H1878.25V1920.8H1889.68C1892.42 1920.8 1895.16 1922.34 1897.9 1925.44C1900.95 1928.54 1902.47 1931.33 1902.47 1933.81V2068.11Z" fill="#EA1525"/>
<path fill-rule="evenodd" clip-rule="evenodd" d="M2219.16 2186.61V2128.98H2232.42C2235.16 2128.98 2237.9 2127.44 2240.64 2124.34C2243.69 2120.93 2245.21 2117.99 2245.21 2115.51V1933.34C2245.21 1930.86 2243.69 1928.08 2240.64 1924.98C2237.9 1921.88 2235.16 1920.33 2232.42 1920.33H2219.16V1861.31H2374.11C2461.56 1861.31 2505.29 1889.35 2505.29 1945.43C2505.29 1964.94 2499.96 1980.12 2489.29 1990.97C2478.63 2001.81 2462.78 2009.86 2441.76 2015.13V2016.99C2490.51 2024.74 2514.89 2050.14 2514.89 2093.2C2514.89 2123.87 2502.55 2147.11 2477.87 2162.91C2453.49 2178.71 2419.36 2186.61 2375.48 2186.61H2219.16ZM2350.34 2126.66H2368.62C2382.64 2126.66 2392.54 2123.41 2398.33 2116.9C2404.43 2110.4 2407.48 2100.33 2407.48 2086.7C2407.48 2073.37 2404.43 2063.77 2398.33 2057.88C2392.54 2051.69 2382.64 2048.59 2368.62 2048.59H2350.34V2126.66ZM2350.34 1922.65V1991.9H2366.8C2390.56 1991.9 2402.45 1980.28 2402.45 1957.04C2402.45 1945.27 2399.71 1936.6 2394.22 1931.02C2388.74 1925.44 2379.75 1922.65 2367.25 1922.65H2350.34Z" fill="#EA1525"/>
</svg>
